<svg width="320" height="420" viewBox="0 0 320 420" xmlns="http://www.w3.org/2000/svg">
  <rect width="320" height="420" rx="20" fill="#FFFFFF"/>
  <rect x="24" y="24" width="272" height="48" rx="10" fill="#0F172A"/>
  <rect x="24" y="92" width="200" height="10" rx="5" fill="#E2E8F0"/>
  <rect x="24" y="114" width="180" height="10" rx="5" fill="#E2E8F0"/>
  <rect x="24" y="156" width="272" height="160" rx="12" fill="#F8FAFC"/>
  <rect x="40" y="176" width="200" height="10" rx="5" fill="#CBD5F5"/>
  <rect x="40" y="196" width="220" height="10" rx="5" fill="#CBD5F5"/>
  <rect x="40" y="216" width="190" height="10" rx="5" fill="#CBD5F5"/>
  <rect x="40" y="236" width="210" height="10" rx="5" fill="#CBD5F5"/>
  <rect x="40" y="256" width="160" height="10" rx="5" fill="#CBD5F5"/>
  <rect x="24" y="336" width="272" height="20" rx="10" fill="#0F172A"/>
  <rect x="24" y="368" width="140" height="10" rx="5" fill="#E2E8F0"/>
  <rect x="24" y="388" width="100" height="10" rx="5" fill="#E2E8F0"/>
  <text x="40" y="56" font-size="14" fill="#FFFFFF" font-family="Arial, sans-serif">RECEIPT</text>
  <text x="40" y="350" font-size="12" fill="#FFFFFF" font-family="Arial, sans-serif">TOTAL 42.50 BGN</text>
</svg>
